<svg id="Layer_1" data-name="Layer 1" xmlns="http://www.w3.org/2000/svg" viewBox="0 0 490.03 488.89"><defs><style>.cls-1{fill:#6ecbd6;}.cls-2{fill:#ee2626;}.cls-3{fill:#231f20;}.cls-4{fill:#fdfefe;}</style></defs><path class="cls-1" d="M495,361.05c-.47,49.55-13.37,97.86-64.38,116.81C375,498.53,308.16,493.61,250,493.61s-125,4.91-180.62-15.75C18.4,458.92,5.47,410.56,5,361.05,3.74,228.12,87.45,5.23,250,5.23S496.26,228.1,495,361.05Z" transform="translate(-4.99 -5.23)"/><path class="cls-2" d="M495,361.05c-.47,49.55-13.37,97.86-64.38,116.81C375,498.53,308.16,493.61,250,493.61s-125,4.91-180.62-15.75C18.4,458.92,5.47,410.56,5,361.05,3.74,228.12,87.45,5.23,250,5.23S496.26,228.1,495,361.05Z" transform="translate(-4.99 -5.23)"/><path class="cls-3" d="M95.93,92.08h43.6V441.62H95.93Zm40,171.5H141L289.23,92.08H344l-139,157.69h-2.19L135.9,323.41ZM174.41,275l30.77-31L356.81,441.62H301.1Z" transform="translate(-4.99 -5.23)"/><path class="cls-4" d="M469.24,221.48c-.84,1.68-1.68,3.79-3.79,5.47C460,348.16,448.2,424.34,431.78,454.23c-16.83,29-41.24,30.3-55.13,30.3-16.42,0-46.3-3.79-75.34-9.68.84-8.42,0-21-1.26-29.88,31.56,7.15,64,10.52,73.65,10.52,15.15,0,23.57-3.79,32.41-19.78,12.63-25.68,23.15-96.38,27.36-191.08H298.78c-21,100.59-62.71,183.92-138.89,241.16-5-5.47-16-13.47-24-18.52C208.71,412.56,247,340.59,267.22,244.63H151.05v-28.2H273.11c5.05-29.89,7.58-56.82,9.68-91.76L324.46,128c-.42,4.63-4.21,7.16-10.52,7.58-2.53,30.72-4.63,53.87-9.26,80.81H441l6.74-2.53Z" transform="translate(-4.99 -5.23)"/></svg>